<?xml version="1.0" standalone="no"?>
<!DOCTYPE svg PUBLIC "-//W3C//DTD SVG 20010904//EN"
 "http://www.w3.org/TR/2001/REC-SVG-20010904/DTD/svg10.dtd">
<svg version="1.0" xmlns="http://www.w3.org/2000/svg"
 width="512.000000pt" height="512.000000pt" viewBox="0 0 512.000000 512.000000"
 preserveAspectRatio="xMidYMid meet">
<metadata>
Created by potrace 1.14, written by Peter Selinger 2001-2017
</metadata>
<g transform="translate(0.000000,512.000000) scale(0.100000,-0.100000)"
fill="#000000" stroke="none">
<path d="M2255 5113 c-385 -48 -745 -264 -953 -573 -77 -114 -81 -121 -92
-150 -9 -22 -21 -28 -77 -38 -385 -73 -683 -437 -679 -829 1 -57 -1 -103 -4
-103 -14 0 -148 -131 -195 -190 -133 -167 -208 -335 -243 -545 -8 -52 -9 -267
0 -325 15 -106 53 -223 109 -337 33 -68 65 -128 72 -135 7 -7 32 -39 56 -71
57 -75 162 -172 248 -229 73 -49 113 -72 117 -66 2 2 22 39 46 82 24 44 72
118 107 164 35 47 62 85 61 87 -2 1 -25 14 -53 30 -222 125 -363 354 -371 605
-5 165 34 305 123 435 40 60 126 150 173 182 14 9 27 19 30 23 3 3 43 27 90
54 47 27 87 50 89 52 1 1 -9 42 -23 91 -15 48 -29 115 -32 148 -21 213 120
416 333 478 33 10 90 15 162 14 61 0 114 3 118 6 3 4 24 53 45 109 125 334
387 557 728 622 82 16 275 15 355 -2 128 -27 263 -89 372 -171 175 -130 283
-287 348 -506 52 -175 48 -169 110 -154 65 16 144 24 235 23 77 0 110 -6 170
-28 282 -101 447 -389 387 -676 -5 -25 -32 -103 -59 -173 -28 -71 -46 -132
-42 -136 5 -4 52 -18 104 -30 176 -42 254 -78 335 -157 29 -28 62 -65 73 -83
10 -17 70 -85 133 -150 124 -129 198 -237 256 -373 20 -46 39 -86 42 -91 4 -4
18 37 32 90 32 132 33 337 0 458 -26 98 -87 228 -146 310 -57 80 -186 201
-262 245 l-60 35 1 145 c1 178 -8 241 -55 368 -128 351 -445 600 -824 647 -11
1 -38 3 -61 4 -39 1 -41 2 -70 63 -174 369 -539 651 -950 734 -74 15 -338 26
-409 17z"/>
<path d="M2769 3096 c-2 -2 -25 -6 -50 -9 -153 -18 -333 -89 -483 -190 -122
-82 -277 -251 -335 -365 -12 -24 -27 -45 -34 -47 -202 -59 -267 -92 -367 -183
-146 -132 -223 -293 -237 -501 l-6 -94 -64 -61 c-131 -122 -230 -290 -273
-461 -26 -101 -35 -287 -19 -370 5 -27 12 -62 14 -78 10 -55 66 -193 106 -260
43 -73 114 -164 164 -211 92 -87 267 -193 356 -216 19 -5 61 -17 94 -27 56
-16 158 -17 1405 -20 905 -3 1367 0 1413 7 323 50 596 313 655 633 8 42 8 244
0 282 -43 214 -171 410 -337 517 l-53 34 -2 124 c-3 146 -20 226 -78 350 -87
188 -245 341 -435 420 -75 32 -189 59 -254 62 -37 1 -40 4 -74 70 -150 284
-426 493 -761 573 -62 15 -333 32 -345 21z m311 -425 c167 -50 310 -156 406
-299 47 -70 71 -125 110 -255 18 -60 35 -111 37 -114 3 -2 47 4 98 13 208 38
332 8 449 -106 98 -96 138 -191 138 -326 -1 -79 -15 -128 -93 -319 -18 -43
-12 -48 85 -72 52 -13 100 -25 105 -27 6 -2 23 -6 39 -11 92 -25 200 -126 237
-223 75 -192 -11 -406 -200 -496 l-66 -31 -1315 -2 c-832 -1 -1335 1 -1370 8
-83 15 -211 82 -274 143 -280 273 -215 701 137 900 45 25 88 50 95 55 11 6 8
27 -14 107 -21 80 -25 112 -21 167 11 124 81 230 187 279 36 17 70 22 172 26
l126 4 27 76 c52 147 113 245 204 330 48 46 124 102 137 102 4 0 15 6 23 14
19 17 117 53 192 70 85 21 259 14 349 -13z"/>
</g>
</svg>
